<?xml version="1.0" standalone="no"?>
<!DOCTYPE svg PUBLIC "-//W3C//DTD SVG 20010904//EN"
 "http://www.w3.org/TR/2001/REC-SVG-20010904/DTD/svg10.dtd">
<svg version="1.0" xmlns="http://www.w3.org/2000/svg"
 width="1061.000000pt" height="1280.000000pt" viewBox="0 0 1061.000000 1280.000000"
 preserveAspectRatio="xMidYMid meet">

<g transform="translate(0.000000,1280.000000) scale(0.100000,-0.100000)"
fill="#000000" stroke="none">
<path d="M9159 9907 c-791 -536 -1240 -1214 -1372 -2072 -41 -262 -42 -317
-42 -2125 0 -1803 1 -1863 41 -2145 125 -879 533 -1571 1239 -2101 66 -50 195
-139 241 -167 12 -7 74 78 74 101 0 6 -48 44 -107 84 -826 560 -1277 1366
-1342 2398 -14 218 -14 3448 -1 3655 42 622 248 1160 617 1610 195 237 508
515 758 670 41 26 75 52 75 59 0 16 -57 106 -67 105 -5 0 -56 -32 -114 -72z"/>
<path d="M1291 9912 c-17 -27 -31 -53 -31 -58 0 -5 18 -19 39 -31 55 -31 322
-233 411 -311 357 -310 608 -624 780 -977 88 -181 133 -304 181 -495 77 -304
72 -140 79 -2425 6 -1953 6 -2059 -12 -2245 -56 -588 -247 -1087 -574 -1498
-128 -161 -391 -415 -500 -482 -32 -19 -30 -34 8 -84 17 -22 33 -43 35 -45 9
-13 179 126 327 269 492 475 771 1089 845 1854 15 149 15 4043 1 4222 -46 572
-255 1087 -628 1549 -133 164 -356 383 -537 528 -157 126 -366 277 -383 277
-6 0 -24 -22 -41 -48z"/>
<path d="M3433 8798 c5 -805 6 -828 57 -965 104 -280 355 -475 655 -512 125
-15 2215 -15 2340 0 274 33 502 193 620 435 88 179 95 259 95 1122 l0 672 -70
0 -70 0 0 -718 c0 -434 -4 -750 -10 -800 -35 -280 -227 -493 -508 -565 l-87
-22 -1135 0 c-1028 0 -1142 2 -1212 17 -147 32 -290 118 -382 228 -54 65 -112
182 -131 265 -25 109 -35 389 -34 1015 l0 575 -66 3 -66 3 4 -753z"/>
<path d="M4000 8350 l0 -70 1313 2 1312 3 0 65 0 65 -1312 3 -1313 2 0 -70z"/>
<path d="M4183 6040 c-331 -33 -595 -237 -697 -538 -50 -147 -51 -171 -51
-1577 0 -1409 1 -1425 52 -1575 77 -227 244 -401 468 -486 148 -56 154 -56
1240 -61 1291 -6 1370 -1 1563 96 238 119 386 331 427 607 14 97 15 262 12
1474 -4 1509 1 1411 -68 1576 -99 239 -303 407 -570 470 -68 16 -162 18 -1184
20 -610 1 -1147 -2 -1192 -6z m2172 -131 c172 -12 245 -29 340 -75 130 -63
229 -164 294 -299 49 -103 60 -150 71 -309 13 -182 12 -2414 0 -2600 -15 -219
-62 -342 -177 -466 -107 -116 -254 -189 -418 -209 -123 -15 -2148 -15 -2282 0
-306 34 -530 235 -591 531 -16 76 -17 199 -17 1443 0 1527 -3 1451 74 1610 47
98 107 172 186 232 115 88 231 126 425 142 157 12 1929 13 2095 0z"/>
<path d="M4040 5110 l0 -70 1070 0 1070 0 0 70 0 70 -1070 0 -1070 0 0 -70z"/>
<path d="M4040 3927 l0 -67 783 2 782 3 0 60 0 60 -783 5 -782 5 0 -68z"/>
<path d="M4013 2913 c-9 -3 -13 -27 -13 -69 l0 -64 1315 0 1315 0 0 64 c0 58
-2 64 -22 70 -27 7 -2577 6 -2595 -1z"/>
</g>
</svg>
